<svg width="27" height="22" viewBox="0 0 27 22" fill="none" xmlns="http://www.w3.org/2000/svg">
<path d="M1.5 20.5H3.82525M3.82525 20.5H10.801M3.82525 20.5V10.5621C3.82525 9.94084 3.82525 9.63006 3.90078 9.34098C3.96772 9.0848 4.07846 8.84238 4.22717 8.6233C4.39498 8.3761 4.6282 8.1711 5.09573 7.76202L10.6782 2.87739C11.5449 2.11901 11.9783 1.7398 12.4663 1.59546C12.8967 1.46818 13.3555 1.46818 13.7859 1.59546C14.2743 1.73991 14.7083 2.11948 15.5764 2.879L21.157 7.76202C21.6245 8.17109 21.8578 8.3761 22.0256 8.6233C22.1743 8.84237 22.2842 9.0848 22.3511 9.34098C22.4267 9.63006 22.4272 9.94084 22.4272 10.5621V20.5M10.801 20.5H15.4515M10.801 20.5V15.8495C10.801 14.5653 11.842 13.5243 13.1262 13.5243C14.4104 13.5243 15.4515 14.5653 15.4515 15.8495V20.5M15.4515 20.5H22.4272M22.4272 20.5H24.7525" stroke="#800000" stroke-width="3" stroke-linecap="round" stroke-linejoin="round"/>
</svg>
