<svg width="22" height="17" viewBox="0 0 22 17" fill="none" xmlns="http://www.w3.org/2000/svg">
<path d="M17.5387 3.66213L20.3542 6.4776C20.7883 6.91174 21.0322 7.50055 21.0322 8.11451C21.0322 8.72847 20.7883 9.31728 20.3542 9.75141L17.5387 12.5669C15.8022 14.3034 13.4469 15.279 10.9911 15.279C8.53524 15.279 6.17999 14.3034 4.44346 12.5669L1.62798 9.75141C1.19385 9.31728 0.949951 8.72847 0.949951 8.11451C0.949951 7.50055 1.19385 6.91174 1.62798 6.4776L4.44346 3.66213C6.17999 1.92559 8.53524 0.950012 10.9911 0.950012C13.4469 0.950012 15.8022 1.92559 17.5387 3.66213Z" fill="white"/>
<path d="M10.9911 11.0075C12.5892 11.0075 13.8847 9.71195 13.8847 8.11382C13.8847 6.5157 12.5892 5.22016 10.9911 5.22016C9.39294 5.22016 8.0974 6.5157 8.0974 8.11382C8.0974 9.71195 9.39294 11.0075 10.9911 11.0075Z" fill="white"/>
<path d="M17.5387 3.66213L20.3542 6.4776C20.7883 6.91174 21.0322 7.50055 21.0322 8.11451C21.0322 8.72847 20.7883 9.31728 20.3542 9.75141L17.5387 12.5669C15.8022 14.3034 13.4469 15.279 10.9911 15.279C8.53524 15.279 6.17999 14.3034 4.44346 12.5669L1.62798 9.75141C1.19385 9.31728 0.949951 8.72847 0.949951 8.11451C0.949951 7.50055 1.19385 6.91174 1.62798 6.4776L4.44346 3.66213C6.17999 1.92559 8.53524 0.950012 10.9911 0.950012C13.4469 0.950012 15.8022 1.92559 17.5387 3.66213Z" stroke="#C3C3C3" stroke-width="1.9" stroke-linecap="round" stroke-linejoin="round"/>
<path d="M10.9911 11.0075C12.5892 11.0075 13.8847 9.71195 13.8847 8.11382C13.8847 6.5157 12.5892 5.22016 10.9911 5.22016C9.39294 5.22016 8.0974 6.5157 8.0974 8.11382C8.0974 9.71195 9.39294 11.0075 10.9911 11.0075Z" stroke="#C3C3C3" stroke-width="1.9" stroke-linecap="round" stroke-linejoin="round"/>
</svg>
