<svg width="26" height="21" viewBox="0 0 26 21" fill="none" xmlns="http://www.w3.org/2000/svg">
<path d="M1 20H3.32525M3.32525 20H10.301M3.32525 20V10.0621C3.32525 9.44084 3.32525 9.13006 3.40078 8.84098C3.46772 8.5848 3.57846 8.34238 3.72717 8.1233C3.89498 7.8761 4.1282 7.6711 4.59573 7.26202L10.1782 2.37739C11.0449 1.61901 11.4783 1.2398 11.9663 1.09546C12.3967 0.96818 12.8555 0.96818 13.2859 1.09546C13.7743 1.23991 14.2083 1.61948 15.0764 2.379L20.657 7.26202C21.1245 7.67109 21.3578 7.8761 21.5256 8.1233C21.6743 8.34237 21.7842 8.5848 21.8511 8.84098C21.9267 9.13006 21.9272 9.44084 21.9272 10.0621V20M10.301 20H14.9515M10.301 20V15.3495C10.301 14.0653 11.342 13.0243 12.6262 13.0243C13.9104 13.0243 14.9515 14.0653 14.9515 15.3495V20M14.9515 20H21.9272M21.9272 20H24.2525" stroke="white" stroke-width="2" stroke-linecap="round" stroke-linejoin="round"/>
</svg>
